<svg width="164" height="28" viewBox="0 0 164 28" fill="none" xmlns="http://www.w3.org/2000/svg">
<path d="M17 1H3C2.20435 1 1.44129 1.31607 0.87868 1.87868C0.31607 2.44129 0 3.20435 0 4V18C0 18.7957 0.31607 19.5587 0.87868 20.1213C1.44129 20.684 2.20435 21 3 21H17C17.7957 21 18.5587 20.684 19.1213 20.1213C19.684 19.5587 20 18.7957 20 18V4C20 3.20435 19.684 2.44129 19.1213 1.87868C18.5587 1.31607 17.7957 1 17 1ZM18 18C18 18.2652 17.8947 18.5195 17.7072 18.7072C17.5195 18.8947 17.2652 19 17 19H3C2.73478 19 2.48043 18.8947 2.2929 18.7072C2.10535 18.5195 2 18.2652 2 18V4C2 3.73478 2.10535 3.48043 2.2929 3.2929C2.48043 3.10535 2.73478 3 3 3H17C17.2652 3 17.5195 3.10535 17.7072 3.2929C17.8947 3.48043 18 3.73478 18 4V18ZM15 8H13V6C13 5.73478 12.8946 5.48043 12.7071 5.2929C12.5196 5.10535 12.2652 5 12 5H8C7.73478 5 7.48043 5.10535 7.2929 5.2929C7.10535 5.48043 7 5.73478 7 6V8H5C4.73478 8 4.48043 8.10535 4.2929 8.2929C4.10535 8.48043 4 8.73478 4 9V13C4 13.2652 4.10535 13.5196 4.2929 13.7071C4.48043 13.8946 4.73478 14 5 14H7V16C7 16.2652 7.10535 16.5196 7.2929 16.7071C7.48043 16.8946 7.73478 17 8 17H12C12.2652 17 12.5196 16.8946 12.7071 16.7071C12.8946 16.5196 13 16.2652 13 16V14H15C15.2652 14 15.5196 13.8946 15.7071 13.7071C15.8946 13.5196 16 13.2652 16 13V9C16 8.73478 15.8946 8.48043 15.7071 8.2929C15.5196 8.10535 15.2652 8 15 8ZM14 12H12C11.7348 12 11.4804 12.1053 11.2929 12.2929C11.1053 12.4804 11 12.7348 11 13V15H9V13C9 12.7348 8.89465 12.4804 8.7071 12.2929C8.51957 12.1053 8.26522 12 8 12H6V10H8C8.26522 10 8.51957 9.89465 8.7071 9.7071C8.89465 9.51957 9 9.26522 9 9V7H11V9C11 9.26522 11.1053 9.51957 11.2929 9.7071C11.4804 9.89465 11.7348 10 12 10H14V12Z" fill="#5EB647"/>
<path d="M28 21.3998V0.90135H36.9064C39.1069 0.90135 40.7857 1.4441 41.9429 2.5296C43.1 3.61509 43.6786 5.10765 43.6786 7.00727C43.6786 8.8875 43.1 10.3801 41.9429 11.4849C40.7857 12.5898 39.1069 13.1423 36.9064 13.1423H31.6707V21.3998H28ZM31.6707 10.1765H36.4795C37.6936 10.1765 38.6042 9.90516 39.2112 9.36241C39.8183 8.80028 40.1218 8.01523 40.1218 7.00727C40.1218 5.99931 39.8183 5.22395 39.2112 4.6812C38.6042 4.11907 37.6936 3.83801 36.4795 3.83801H31.6707V10.1765Z" fill="#5EB647"/>
<path d="M46.6668 21.3998V0H50.2237V9.65317H49.8253C50.2616 8.60644 50.9351 7.8117 51.8456 7.26895C52.7562 6.70682 53.7995 6.42575 54.9757 6.42575C56.6829 6.42575 57.9539 6.92004 58.7886 7.90862C59.6233 8.87781 60.0406 10.3607 60.0406 12.3572V21.3998H56.4838V12.5317C56.4838 11.388 56.2656 10.5642 55.8293 10.0602C55.412 9.53686 54.7385 9.27518 53.809 9.27518C52.7277 9.27518 51.8551 9.62409 51.1912 10.3219C50.5462 11.0003 50.2237 11.9114 50.2237 13.055V21.3998H46.6668Z" fill="#5EB647"/>
<path d="M69.3607 21.6906C68.1087 21.6906 67.0084 21.3901 66.0599 20.7892C65.1114 20.1689 64.3716 19.287 63.8405 18.1433C63.3093 16.9997 63.0437 15.6331 63.0437 14.0436C63.0437 12.4541 63.3093 11.0973 63.8405 9.973C64.3716 8.82935 65.1114 7.95708 66.0599 7.35618C67.0084 6.7359 68.1087 6.42575 69.3607 6.42575C70.5748 6.42575 71.6371 6.7359 72.5476 7.35618C73.4772 7.95708 74.0937 8.7712 74.3972 9.79855H74.0842L74.3972 6.71651H77.8118C77.7549 7.31741 77.698 7.928 77.6411 8.54829C77.6031 9.16857 77.5842 9.77916 77.5842 10.3801V21.3998H74.0557L74.0273 18.3759H74.3688C74.0652 19.3839 73.4487 20.1883 72.5192 20.7892C71.5897 21.3901 70.5368 21.6906 69.3607 21.6906ZM70.3566 18.8993C71.4758 18.8993 72.3769 18.5019 73.0598 17.7072C73.7427 16.893 74.0842 15.6719 74.0842 14.0436C74.0842 12.4154 73.7427 11.2039 73.0598 10.4091C72.3769 9.6144 71.4758 9.21703 70.3566 9.21703C69.2374 9.21703 68.3363 9.6144 67.6534 10.4091C66.9705 11.2039 66.629 12.4154 66.629 14.0436C66.629 15.6719 66.961 16.893 67.6249 17.7072C68.3079 18.5019 69.2184 18.8993 70.3566 18.8993Z" fill="#5EB647"/>
<path d="M81.4289 21.3998V10.4673C81.4289 9.84701 81.4099 9.21703 81.372 8.57736C81.353 7.9377 81.3056 7.31741 81.2297 6.71651H84.6727L85.0711 10.729H84.502C84.6917 9.75978 85.0047 8.95535 85.441 8.31568C85.8963 7.67601 86.4464 7.20111 87.0914 6.89097C87.7364 6.58082 88.4383 6.42575 89.1971 6.42575C89.5385 6.42575 89.8136 6.44514 90.0223 6.48391C90.2309 6.50329 90.4396 6.55175 90.6483 6.62928L90.6198 9.82762C90.2594 9.67255 89.9464 9.57563 89.6808 9.53686C89.4342 9.4981 89.1212 9.47871 88.7418 9.47871C87.9261 9.47871 87.2337 9.65317 86.6646 10.0021C86.1145 10.351 85.6971 10.8356 85.4126 11.4559C85.147 12.0762 85.0142 12.7837 85.0142 13.5784V21.3998H81.4289Z" fill="#5EB647"/>
<path d="M92.6281 21.3998V10.3801C92.6281 9.77916 92.6091 9.16857 92.5712 8.54829C92.5332 7.928 92.4763 7.31741 92.4005 6.71651H95.8435L96.128 9.62409H95.7866C96.185 8.61613 96.792 7.83108 97.6077 7.26895C98.4424 6.70682 99.4288 6.42575 100.567 6.42575C101.705 6.42575 102.644 6.70682 103.384 7.26895C104.143 7.8117 104.674 8.66459 104.978 9.82762H104.522C104.921 8.78089 105.575 7.95708 106.486 7.35618C107.396 6.7359 108.44 6.42575 109.616 6.42575C111.228 6.42575 112.433 6.91035 113.229 7.87954C114.026 8.84874 114.425 10.3607 114.425 12.4154V21.3998H110.868V12.5607C110.868 11.3977 110.678 10.5642 110.299 10.0602C109.919 9.53686 109.312 9.27518 108.477 9.27518C107.491 9.27518 106.713 9.63378 106.144 10.351C105.575 11.0488 105.291 11.9986 105.291 13.2004V21.3998H101.734V12.5607C101.734 11.3977 101.544 10.5642 101.165 10.0602C100.785 9.53686 100.178 9.27518 99.3434 9.27518C98.357 9.27518 97.5792 9.63378 97.0101 10.351C96.46 11.0488 96.185 11.9986 96.185 13.2004V21.3998H92.6281Z" fill="#5EB647"/>
<path d="M123.769 21.6906C122.517 21.6906 121.417 21.3901 120.469 20.7892C119.52 20.1689 118.78 19.287 118.249 18.1433C117.718 16.9997 117.453 15.6331 117.453 14.0436C117.453 12.4541 117.718 11.0973 118.249 9.973C118.78 8.82935 119.52 7.95708 120.469 7.35618C121.417 6.7359 122.517 6.42575 123.769 6.42575C124.984 6.42575 126.046 6.7359 126.956 7.35618C127.886 7.95708 128.502 8.7712 128.806 9.79855H128.493L128.806 6.71651H132.221C132.164 7.31741 132.107 7.928 132.05 8.54829C132.012 9.16857 131.993 9.77916 131.993 10.3801V21.3998H128.465L128.436 18.3759H128.778C128.474 19.3839 127.858 20.1883 126.928 20.7892C125.998 21.3901 124.946 21.6906 123.769 21.6906ZM124.765 18.8993C125.885 18.8993 126.786 18.5019 127.469 17.7072C128.152 16.893 128.493 15.6719 128.493 14.0436C128.493 12.4154 128.152 11.2039 127.469 10.4091C126.786 9.6144 125.885 9.21703 124.765 9.21703C123.646 9.21703 122.745 9.6144 122.062 10.4091C121.379 11.2039 121.038 12.4154 121.038 14.0436C121.038 15.6719 121.37 16.893 122.034 17.7072C122.717 18.5019 123.627 18.8993 124.765 18.8993Z" fill="#5EB647"/>
<path d="M142.468 21.6906C140.988 21.6906 139.689 21.3804 138.569 20.7601C137.469 20.1398 136.615 19.2579 136.008 18.1142C135.401 16.9512 135.098 15.5749 135.098 13.9855C135.098 12.396 135.401 11.0391 136.008 9.91485C136.634 8.79059 137.498 7.928 138.598 7.3271C139.698 6.7262 140.988 6.42575 142.468 6.42575C143.416 6.42575 144.336 6.58082 145.228 6.89097C146.138 7.18172 146.878 7.60817 147.447 8.1703L146.366 10.6999C145.854 10.2153 145.275 9.8567 144.63 9.62409C144.004 9.3721 143.388 9.24611 142.781 9.24611C141.51 9.24611 140.514 9.65317 139.793 10.4673C139.091 11.2814 138.74 12.4638 138.74 14.0145C138.74 15.5652 139.091 16.7574 139.793 17.5909C140.514 18.4244 141.51 18.8411 142.781 18.8411C143.369 18.8411 143.976 18.7248 144.602 18.4922C145.247 18.2596 145.835 17.901 146.366 17.4164L147.447 19.9169C146.859 20.4791 146.11 20.9152 145.199 21.2253C144.308 21.5355 143.397 21.6906 142.468 21.6906Z" fill="#5EB647"/>
<path d="M150.142 28L149.317 25.1215C150.209 24.9277 150.958 24.7047 151.565 24.4528C152.172 24.2008 152.675 23.8712 153.073 23.4642C153.472 23.0571 153.804 22.5338 154.069 21.8941L154.781 20.1786L154.695 21.6033L148.435 6.71651H152.22L156.716 18.1724H155.89L160.415 6.71651H164L157.455 22.2139C157.019 23.2606 156.545 24.1232 156.033 24.8017C155.52 25.4995 154.97 26.0519 154.382 26.459C153.794 26.8854 153.149 27.215 152.447 27.4476C151.745 27.6802 150.977 27.8643 150.142 28Z" fill="#5EB647"/>
</svg>
