<svg width="84" height="14" viewBox="0 0 84 14" fill="none" xmlns="http://www.w3.org/2000/svg">
<path d="M14.248 13.0002V1.72018H21.688V3.33618H16.312V6.53618H21.32V8.15218H16.312V13.0002H14.248Z" fill="#5EB647"/>
<path d="M26.0518 13.1602C25.3478 13.1602 24.7291 12.9949 24.1958 12.6642C23.6625 12.3229 23.2465 11.8375 22.9478 11.2082C22.6491 10.5789 22.4998 9.82685 22.4998 8.95218C22.4998 8.07752 22.6491 7.33085 22.9478 6.71218C23.2465 6.08285 23.6625 5.60285 24.1958 5.27218C24.7291 4.93085 25.3478 4.76018 26.0518 4.76018C26.7345 4.76018 27.3318 4.93085 27.8438 5.27218C28.3665 5.60285 28.7131 6.05085 28.8838 6.61618H28.7078L28.8838 4.92018H30.8038C30.7718 5.25085 30.7398 5.58685 30.7078 5.92818C30.6865 6.26952 30.6758 6.60552 30.6758 6.93618V13.0002H28.6918L28.6758 11.3362H28.8678C28.6971 11.8909 28.3505 12.3335 27.8278 12.6642C27.3051 12.9949 26.7131 13.1602 26.0518 13.1602ZM26.6118 11.6242C27.2411 11.6242 27.7478 11.4055 28.1318 10.9682C28.5158 10.5202 28.7078 9.84818 28.7078 8.95218C28.7078 8.05618 28.5158 7.38952 28.1318 6.95218C27.7478 6.51485 27.2411 6.29618 26.6118 6.29618C25.9825 6.29618 25.4758 6.51485 25.0918 6.95218C24.7078 7.38952 24.5158 8.05618 24.5158 8.95218C24.5158 9.84818 24.7025 10.5202 25.0758 10.9682C25.4598 11.4055 25.9718 11.6242 26.6118 11.6242Z" fill="#5EB647"/>
<path d="M32.8377 13.0002V6.98418C32.8377 6.64285 32.827 6.29618 32.8057 5.94418C32.795 5.59218 32.7683 5.25085 32.7257 4.92018H34.6617L34.8857 7.12818H34.5657C34.6723 6.59485 34.8483 6.15218 35.0937 5.80018C35.3497 5.44818 35.659 5.18685 36.0217 5.01618C36.3843 4.84552 36.779 4.76018 37.2057 4.76018C37.3977 4.76018 37.5523 4.77085 37.6697 4.79218C37.787 4.80285 37.9043 4.82952 38.0217 4.87218L38.0057 6.63218C37.803 6.54685 37.627 6.49352 37.4777 6.47218C37.339 6.45085 37.163 6.44018 36.9497 6.44018C36.491 6.44018 36.1017 6.53618 35.7817 6.72818C35.4723 6.92018 35.2377 7.18685 35.0777 7.52818C34.9283 7.86952 34.8537 8.25885 34.8537 8.69618V13.0002H32.8377Z" fill="#5EB647"/>
<path d="M39.1349 13.0002V6.93618C39.1349 6.60552 39.1243 6.26952 39.1029 5.92818C39.0816 5.58685 39.0496 5.25085 39.0069 4.92018H40.9429L41.1029 6.52018H40.9109C41.1349 5.96552 41.4763 5.53352 41.9349 5.22418C42.4043 4.91485 42.9589 4.76018 43.5989 4.76018C44.2389 4.76018 44.7669 4.91485 45.1829 5.22418C45.6096 5.52285 45.9083 5.99218 46.0789 6.63218H45.8229C46.0469 6.05618 46.4149 5.60285 46.9269 5.27218C47.4389 4.93085 48.0256 4.76018 48.6869 4.76018C49.5936 4.76018 50.2709 5.02685 50.7189 5.56018C51.1669 6.09352 51.3909 6.92552 51.3909 8.05618V13.0002H49.3909V8.13618C49.3909 7.49618 49.2843 7.03752 49.0709 6.76018C48.8576 6.47218 48.5163 6.32818 48.0469 6.32818C47.4923 6.32818 47.0549 6.52552 46.7349 6.92018C46.4149 7.30418 46.2549 7.82685 46.2549 8.48818V13.0002H44.2549V8.13618C44.2549 7.49618 44.1483 7.03752 43.9349 6.76018C43.7216 6.47218 43.3803 6.32818 42.9109 6.32818C42.3563 6.32818 41.9189 6.52552 41.5989 6.92018C41.2896 7.30418 41.1349 7.82685 41.1349 8.48818V13.0002H39.1349Z" fill="#5EB647"/>
<path d="M56.6455 13.1602C55.9415 13.1602 55.3229 12.9949 54.7895 12.6642C54.2562 12.3229 53.8402 11.8375 53.5415 11.2082C53.2429 10.5789 53.0935 9.82685 53.0935 8.95218C53.0935 8.07752 53.2429 7.33085 53.5415 6.71218C53.8402 6.08285 54.2562 5.60285 54.7895 5.27218C55.3229 4.93085 55.9415 4.76018 56.6455 4.76018C57.3282 4.76018 57.9255 4.93085 58.4375 5.27218C58.9602 5.60285 59.3069 6.05085 59.4775 6.61618H59.3015L59.4775 4.92018H61.3975C61.3655 5.25085 61.3335 5.58685 61.3015 5.92818C61.2802 6.26952 61.2695 6.60552 61.2695 6.93618V13.0002H59.2855L59.2695 11.3362H59.4615C59.2909 11.8909 58.9442 12.3335 58.4215 12.6642C57.8989 12.9949 57.3069 13.1602 56.6455 13.1602ZM57.2055 11.6242C57.8349 11.6242 58.3415 11.4055 58.7255 10.9682C59.1095 10.5202 59.3015 9.84818 59.3015 8.95218C59.3015 8.05618 59.1095 7.38952 58.7255 6.95218C58.3415 6.51485 57.8349 6.29618 57.2055 6.29618C56.5762 6.29618 56.0695 6.51485 55.6855 6.95218C55.3015 7.38952 55.1095 8.05618 55.1095 8.95218C55.1095 9.84818 55.2962 10.5202 55.6695 10.9682C56.0535 11.4055 56.5655 11.6242 57.2055 11.6242ZM56.6455 4.13618L58.2935 0.888184H60.2615L57.9895 4.13618H56.6455Z" fill="#5EB647"/>
<path d="M67.1594 13.1602C66.3274 13.1602 65.5968 12.9895 64.9674 12.6482C64.3488 12.3069 63.8688 11.8215 63.5274 11.1922C63.1861 10.5522 63.0154 9.79485 63.0154 8.92018C63.0154 8.04552 63.1861 7.29885 63.5274 6.68018C63.8794 6.06152 64.3648 5.58685 64.9834 5.25618C65.6021 4.92552 66.3274 4.76018 67.1594 4.76018C67.6928 4.76018 68.2101 4.84552 68.7114 5.01618C69.2234 5.17618 69.6394 5.41085 69.9594 5.72018L69.3514 7.11218C69.0634 6.84552 68.7381 6.64818 68.3754 6.52018C68.0234 6.38152 67.6768 6.31218 67.3354 6.31218C66.6208 6.31218 66.0608 6.53618 65.6554 6.98418C65.2608 7.43218 65.0634 8.08285 65.0634 8.93618C65.0634 9.78952 65.2608 10.4455 65.6554 10.9042C66.0608 11.3629 66.6208 11.5922 67.3354 11.5922C67.6661 11.5922 68.0074 11.5282 68.3594 11.4002C68.7221 11.2722 69.0528 11.0749 69.3514 10.8082L69.9594 12.1842C69.6288 12.4935 69.2074 12.7335 68.6954 12.9042C68.1941 13.0749 67.6821 13.1602 67.1594 13.1602Z" fill="#5EB647"/>
<path d="M71.5099 13.0002V4.92018H73.5099V13.0002H71.5099ZM71.3979 3.40018V1.44818H73.6219V3.40018H71.3979Z" fill="#5EB647"/>
<path d="M78.8018 13.1602C78.0978 13.1602 77.4791 12.9949 76.9458 12.6642C76.4125 12.3229 75.9965 11.8375 75.6978 11.2082C75.3991 10.5789 75.2498 9.82685 75.2498 8.95218C75.2498 8.07752 75.3991 7.33085 75.6978 6.71218C75.9965 6.08285 76.4125 5.60285 76.9458 5.27218C77.4791 4.93085 78.0978 4.76018 78.8018 4.76018C79.4845 4.76018 80.0818 4.93085 80.5938 5.27218C81.1165 5.60285 81.4631 6.05085 81.6338 6.61618H81.4578L81.6338 4.92018H83.5538C83.5218 5.25085 83.4898 5.58685 83.4578 5.92818C83.4365 6.26952 83.4258 6.60552 83.4258 6.93618V13.0002H81.4418L81.4258 11.3362H81.6178C81.4471 11.8909 81.1005 12.3335 80.5778 12.6642C80.0551 12.9949 79.4631 13.1602 78.8018 13.1602ZM79.3618 11.6242C79.9911 11.6242 80.4978 11.4055 80.8818 10.9682C81.2658 10.5202 81.4578 9.84818 81.4578 8.95218C81.4578 8.05618 81.2658 7.38952 80.8818 6.95218C80.4978 6.51485 79.9911 6.29618 79.3618 6.29618C78.7325 6.29618 78.2258 6.51485 77.8418 6.95218C77.4578 7.38952 77.2658 8.05618 77.2658 8.95218C77.2658 9.84818 77.4525 10.5202 77.8258 10.9682C78.2098 11.4055 78.7218 11.6242 79.3618 11.6242Z" fill="#5EB647"/>
<path d="M8.88454 7.70905C8.88454 9.02819 7.43053 10.3328 6.70352 10.8202C6.07242 8.75441 6.77055 6.67199 7.1985 5.88901C6.15904 6.88458 5.77543 9.14538 5.71355 10.1513C5.1567 9.51664 3.78003 9.20242 3.1613 9.12464C4.54725 9.51042 5.18248 10.4158 5.32685 10.8202C5.23404 10.8202 5.04533 10.8451 5.03295 10.9447C5.01748 11.0691 4.32141 11.3491 3.8419 11.3025C3.45829 11.2651 2.96021 10.8617 2.75912 10.6647C2.25176 10.4158 1.41339 8.36239 1.05762 7.36682C1.53198 7.52237 2.64466 7.84283 3.30051 7.88016C3.95636 7.91749 4.83186 8.59574 5.18763 8.90685C5.20826 7.5483 5.46606 5.29788 8.01832 3.91341C8.34562 3.73586 8.88454 6.06012 8.88454 7.70905Z" fill="#5EB647"/>
<circle cx="5.5" cy="7.5" r="5.25" stroke="#5EB647" stroke-width="0.5"/>
</svg>
