<svg width="91" height="16" viewBox="0 0 91 16" fill="none" xmlns="http://www.w3.org/2000/svg">
<path d="M9.35 1H1.65C1.21239 1 0.792709 1.17384 0.483274 1.48327C0.173838 1.79271 0 2.21239 0 2.65V10.35C0 10.7876 0.173838 11.2073 0.483274 11.5167C0.792709 11.8262 1.21239 12 1.65 12H9.35C9.78762 12 10.2073 11.8262 10.5167 11.5167C10.8262 11.2073 11 10.7876 11 10.35V2.65C11 2.21239 10.8262 1.79271 10.5167 1.48327C10.2073 1.17384 9.78762 1 9.35 1ZM9.9 10.35C9.9 10.4958 9.84207 10.6357 9.73894 10.7389C9.63573 10.8421 9.49584 10.9 9.35 10.9H1.65C1.50413 10.9 1.36424 10.8421 1.2611 10.7389C1.15794 10.6357 1.1 10.4958 1.1 10.35V2.65C1.1 2.50413 1.15794 2.36424 1.2611 2.2611C1.36424 2.15794 1.50413 2.1 1.65 2.1H9.35C9.49584 2.1 9.63573 2.15794 9.73894 2.2611C9.84207 2.36424 9.9 2.50413 9.9 2.65V10.35ZM8.25 4.85H7.15V3.75C7.15 3.60413 7.09206 3.46424 6.98891 3.3611C6.88576 3.25794 6.74587 3.2 6.6 3.2H4.4C4.25413 3.2 4.11424 3.25794 4.0111 3.3611C3.90794 3.46424 3.85 3.60413 3.85 3.75V4.85H2.75C2.60413 4.85 2.46424 4.90794 2.3611 5.0111C2.25794 5.11424 2.2 5.25413 2.2 5.4V7.6C2.2 7.74587 2.25794 7.88576 2.3611 7.98891C2.46424 8.09206 2.60413 8.15 2.75 8.15H3.85V9.25C3.85 9.39587 3.90794 9.53576 4.0111 9.63891C4.11424 9.74206 4.25413 9.8 4.4 9.8H6.6C6.74587 9.8 6.88576 9.74206 6.98891 9.63891C7.09206 9.53576 7.15 9.39587 7.15 9.25V8.15H8.25C8.39587 8.15 8.53576 8.09206 8.63891 7.98891C8.74206 7.88576 8.8 7.74587 8.8 7.6V5.4C8.8 5.25413 8.74206 5.11424 8.63891 5.0111C8.53576 4.90794 8.39587 4.85 8.25 4.85ZM7.7 7.05H6.6C6.45413 7.05 6.31424 7.10794 6.2111 7.2111C6.10794 7.31424 6.05 7.45413 6.05 7.6V8.7H4.95V7.6C4.95 7.45413 4.89206 7.31424 4.7889 7.2111C4.68576 7.10794 4.54587 7.05 4.4 7.05H3.3V5.95H4.4C4.54587 5.95 4.68576 5.89206 4.7889 5.7889C4.89206 5.68576 4.95 5.54587 4.95 5.4V4.3H6.05V5.4C6.05 5.54587 6.10794 5.68576 6.2111 5.7889C6.31424 5.89206 6.45413 5.95 6.6 5.95H7.7V7.05Z" fill="#5EB647"/>
<path d="M14.248 12.0001V0.720121H19.256C20.4933 0.720121 21.4373 1.01879 22.088 1.61612C22.7387 2.21345 23.064 3.03479 23.064 4.08012C23.064 5.11479 22.7387 5.93612 22.088 6.54412C21.4373 7.15212 20.4933 7.45612 19.256 7.45612H16.312V12.0001H14.248ZM16.312 5.82412H19.016C19.6987 5.82412 20.2107 5.67479 20.552 5.37612C20.8933 5.06679 21.064 4.63479 21.064 4.08012C21.064 3.52545 20.8933 3.09879 20.552 2.80012C20.2107 2.49079 19.6987 2.33612 19.016 2.33612H16.312V5.82412Z" fill="#5EB647"/>
<path d="M24.7443 12.0001V0.224121H26.7443V5.53612H26.5203C26.7656 4.96012 27.1443 4.52279 27.6563 4.22412C28.1683 3.91479 28.7549 3.76012 29.4163 3.76012C30.3763 3.76012 31.0909 4.03212 31.5603 4.57612C32.0296 5.10945 32.2643 5.92545 32.2643 7.02412V12.0001H30.2643V7.12012C30.2643 6.49079 30.1416 6.03746 29.8963 5.76012C29.6616 5.47212 29.2829 5.32812 28.7603 5.32812C28.1523 5.32812 27.6616 5.52012 27.2883 5.90412C26.9256 6.27746 26.7443 6.77879 26.7443 7.40812V12.0001H24.7443Z" fill="#5EB647"/>
<path d="M37.5049 12.1601C36.8009 12.1601 36.1822 11.9948 35.6489 11.6641C35.1155 11.3228 34.6995 10.8375 34.4009 10.2081C34.1022 9.57879 33.9529 8.82679 33.9529 7.95212C33.9529 7.07746 34.1022 6.33079 34.4009 5.71212C34.6995 5.08279 35.1155 4.60279 35.6489 4.27212C36.1822 3.93079 36.8009 3.76012 37.5049 3.76012C38.1875 3.76012 38.7849 3.93079 39.2969 4.27212C39.8195 4.60279 40.1662 5.05079 40.3369 5.61612H40.1609L40.3369 3.92012H42.2569C42.2249 4.25079 42.1929 4.58679 42.1609 4.92812C42.1395 5.26945 42.1289 5.60546 42.1289 5.93612V12.0001H40.1449L40.1289 10.3361H40.3209C40.1502 10.8908 39.8035 11.3335 39.2809 11.6641C38.7582 11.9948 38.1662 12.1601 37.5049 12.1601ZM38.0649 10.6241C38.6942 10.6241 39.2009 10.4055 39.5849 9.96812C39.9689 9.52012 40.1609 8.84812 40.1609 7.95212C40.1609 7.05612 39.9689 6.38946 39.5849 5.95212C39.2009 5.51479 38.6942 5.29612 38.0649 5.29612C37.4355 5.29612 36.9289 5.51479 36.5449 5.95212C36.1609 6.38946 35.9689 7.05612 35.9689 7.95212C35.9689 8.84812 36.1555 9.52012 36.5289 9.96812C36.9129 10.4055 37.4249 10.6241 38.0649 10.6241Z" fill="#5EB647"/>
<path d="M44.2908 12.0001V5.98412C44.2908 5.64279 44.2801 5.29612 44.2588 4.94412C44.2481 4.59212 44.2214 4.25079 44.1788 3.92012H46.1148L46.3388 6.12812H46.0188C46.1254 5.59479 46.3014 5.15212 46.5468 4.80012C46.8028 4.44812 47.1121 4.18679 47.4748 4.01612C47.8374 3.84545 48.2321 3.76012 48.6588 3.76012C48.8508 3.76012 49.0054 3.77079 49.1228 3.79212C49.2401 3.80279 49.3574 3.82946 49.4748 3.87212L49.4588 5.63212C49.2561 5.54679 49.0801 5.49346 48.9308 5.47212C48.7921 5.45079 48.6161 5.44012 48.4028 5.44012C47.9441 5.44012 47.5548 5.53612 47.2348 5.72812C46.9254 5.92012 46.6908 6.18679 46.5308 6.52812C46.3814 6.86946 46.3068 7.25879 46.3068 7.69612V12.0001H44.2908Z" fill="#5EB647"/>
<path d="M50.588 12.0001V5.93612C50.588 5.60546 50.5773 5.26945 50.556 4.92812C50.5347 4.58679 50.5027 4.25079 50.46 3.92012H52.396L52.556 5.52012H52.364C52.588 4.96546 52.9293 4.53346 53.388 4.22412C53.8573 3.91479 54.412 3.76012 55.052 3.76012C55.692 3.76012 56.22 3.91479 56.636 4.22412C57.0627 4.52279 57.3613 4.99212 57.532 5.63212H57.276C57.5 5.05612 57.868 4.60279 58.38 4.27212C58.892 3.93079 59.4787 3.76012 60.14 3.76012C61.0467 3.76012 61.724 4.02679 62.172 4.56012C62.62 5.09346 62.844 5.92546 62.844 7.05612V12.0001H60.844V7.13612C60.844 6.49612 60.7373 6.03746 60.524 5.76012C60.3107 5.47212 59.9693 5.32812 59.5 5.32812C58.9453 5.32812 58.508 5.52545 58.188 5.92012C57.868 6.30412 57.708 6.82679 57.708 7.48812V12.0001H55.708V7.13612C55.708 6.49612 55.6013 6.03746 55.388 5.76012C55.1747 5.47212 54.8333 5.32812 54.364 5.32812C53.8093 5.32812 53.372 5.52545 53.052 5.92012C52.7427 6.30412 52.588 6.82679 52.588 7.48812V12.0001H50.588Z" fill="#5EB647"/>
<path d="M68.0986 12.1601C67.3946 12.1601 66.776 11.9948 66.2426 11.6641C65.7093 11.3228 65.2933 10.8375 64.9946 10.2081C64.696 9.57879 64.5466 8.82679 64.5466 7.95212C64.5466 7.07746 64.696 6.33079 64.9946 5.71212C65.2933 5.08279 65.7093 4.60279 66.2426 4.27212C66.776 3.93079 67.3946 3.76012 68.0986 3.76012C68.7813 3.76012 69.3786 3.93079 69.8906 4.27212C70.4133 4.60279 70.76 5.05079 70.9306 5.61612H70.7546L70.9306 3.92012H72.8506C72.8186 4.25079 72.7866 4.58679 72.7546 4.92812C72.7333 5.26945 72.7226 5.60546 72.7226 5.93612V12.0001H70.7386L70.7226 10.3361H70.9146C70.744 10.8908 70.3973 11.3335 69.8746 11.6641C69.352 11.9948 68.76 12.1601 68.0986 12.1601ZM68.6586 10.6241C69.288 10.6241 69.7946 10.4055 70.1786 9.96812C70.5626 9.52012 70.7546 8.84812 70.7546 7.95212C70.7546 7.05612 70.5626 6.38946 70.1786 5.95212C69.7946 5.51479 69.288 5.29612 68.6586 5.29612C68.0293 5.29612 67.5226 5.51479 67.1386 5.95212C66.7546 6.38946 66.5626 7.05612 66.5626 7.95212C66.5626 8.84812 66.7493 9.52012 67.1226 9.96812C67.5066 10.4055 68.0186 10.6241 68.6586 10.6241Z" fill="#5EB647"/>
<path d="M78.6125 12.1601C77.7805 12.1601 77.0498 11.9895 76.4205 11.6481C75.8018 11.3068 75.3218 10.8215 74.9805 10.1921C74.6392 9.55212 74.4685 8.79479 74.4685 7.92012C74.4685 7.04546 74.6392 6.29879 74.9805 5.68012C75.3325 5.06146 75.8178 4.58679 76.4365 4.25612C77.0552 3.92545 77.7805 3.76012 78.6125 3.76012C79.1458 3.76012 79.6632 3.84545 80.1645 4.01612C80.6765 4.17612 81.0925 4.41079 81.4125 4.72012L80.8045 6.11212C80.5165 5.84546 80.1912 5.64812 79.8285 5.52012C79.4765 5.38146 79.1298 5.31212 78.7885 5.31212C78.0738 5.31212 77.5138 5.53612 77.1085 5.98412C76.7138 6.43212 76.5165 7.08279 76.5165 7.93612C76.5165 8.78946 76.7138 9.44545 77.1085 9.90412C77.5138 10.3628 78.0738 10.5921 78.7885 10.5921C79.1192 10.5921 79.4605 10.5281 79.8125 10.4001C80.1752 10.2721 80.5058 10.0748 80.8045 9.80812L81.4125 11.1841C81.0818 11.4935 80.6605 11.7335 80.1485 11.9041C79.6472 12.0748 79.1352 12.1601 78.6125 12.1601Z" fill="#5EB647"/>
<path d="M82.928 15.6321L82.464 14.0481C82.9653 13.9415 83.3867 13.8188 83.728 13.6801C84.0693 13.5415 84.352 13.3601 84.576 13.1361C84.8 12.9121 84.9867 12.6241 85.136 12.2721L85.536 11.3281L85.488 12.1121L81.968 3.92012H84.096L86.624 10.2241H86.16L88.704 3.92012H90.72L87.04 12.4481C86.7947 13.0241 86.528 13.4988 86.24 13.8721C85.952 14.2561 85.6427 14.5601 85.312 14.7841C84.9813 15.0188 84.6187 15.2001 84.224 15.3281C83.8293 15.4561 83.3973 15.5575 82.928 15.6321Z" fill="#5EB647"/>
</svg>
